<svg xmlns="http://www.w3.org/2000/svg" width="480" height="330" viewBox="0 0 480 330" role="img" aria-labelledby="title desc"><title>Gray Matter stacked logo</title><desc>Stacked Gray Matter logo with a GM brain mark.</desc><g transform="translate(160 22) scale(1.02)"><g fill="none" stroke="#13233B" stroke-width="8" stroke-linecap="round" stroke-linejoin="round"><path d="M76 20C58 5 28 13 22 36c-10 3-16 13-16 25 0 14 9 26 22 29 5 21 33 29 48 14"/><path d="M84 20c18-15 48-7 54 16 10 3 16 13 16 25 0 14-9 26-22 29-5 21-33 29-48 14"/><path d="M76 20v89"/></g><path d="M60 42c-5-6-13-9-21-7-10 2-17 12-17 25s8 23 19 25c9 2 17-2 21-9" fill="none" stroke="#356AE6" stroke-width="9" stroke-linecap="round"/><path d="M95 83V43l14 23 14-23v40" fill="none" stroke="#13233B" stroke-width="9" stroke-linecap="round" stroke-linejoin="round"/></g><text x="240" y="194" text-anchor="middle" fill="#13233B" font-family="Manrope,Arial,sans-serif" font-size="48" font-weight="800" letter-spacing="-1.2">GRAY MATTER</text><text x="240" y="229" text-anchor="middle" fill="#607086" font-family="Inter,Arial,sans-serif" font-size="14" font-weight="700" letter-spacing="1.6">DIGITAL &amp; TECHNOLOGY SOLUTIONS</text></svg>
