<svg xmlns="http://www.w3.org/2000/svg" width="720" height="160" viewBox="0 0 720 160" role="img" aria-labelledby="title desc">
  <title>Gray Matter horizontal logo</title><desc>Gray Matter Digital and Technology Solutions logo with a GM brain mark.</desc>
  <g transform="translate(18 16) scale(.93)"><g fill="none" stroke="#13233B" stroke-width="8" stroke-linecap="round" stroke-linejoin="round"><path d="M76 20C58 5 28 13 22 36c-10 3-16 13-16 25 0 14 9 26 22 29 5 21 33 29 48 14"/><path d="M84 20c18-15 48-7 54 16 10 3 16 13 16 25 0 14-9 26-22 29-5 21-33 29-48 14"/><path d="M76 20v89"/></g><path d="M60 42c-5-6-13-9-21-7-10 2-17 12-17 25s8 23 19 25c9 2 17-2 21-9" fill="none" stroke="#356AE6" stroke-width="9" stroke-linecap="round"/><path d="M95 83V43l14 23 14-23v40" fill="none" stroke="#13233B" stroke-width="9" stroke-linecap="round" stroke-linejoin="round"/></g>
  <text x="177" y="76" fill="#13233B" font-family="Manrope,Arial,sans-serif" font-size="50" font-weight="800" letter-spacing="-1.4">GRAY MATTER</text>
  <text x="180" y="108" fill="#607086" font-family="Inter,Arial,sans-serif" font-size="15" font-weight="700" letter-spacing="1.7">DIGITAL &amp; TECHNOLOGY SOLUTIONS</text>
</svg>
